<svg xmlns="http://www.w3.org/2000/svg" xmlns:xlink="http://www.w3.org/1999/xlink" viewBox="0 0 1237.05 118.51"><defs><style>.cls-1{fill:#0973b9;}.cls-2{fill:#58595b;opacity:0.3;}.cls-3{fill:#62a0d6;}.cls-4{fill:url(#linear-gradient);}.cls-5{fill:#fff;}.cls-6{fill:#0071bb;}</style><linearGradient id="linear-gradient" x1="751.74" y1="0.01" x2="751.74" y2="118.51" gradientUnits="userSpaceOnUse"><stop offset="0.47" stop-color="#f7f8f9"/><stop offset="0.72" stop-color="#f5f6f7"/><stop offset="0.8" stop-color="#efeff0"/><stop offset="0.87" stop-color="#e3e4e5"/><stop offset="0.92" stop-color="#d3d3d4"/><stop offset="0.96" stop-color="#bebebe"/><stop offset="1" stop-color="#a4a3a3"/><stop offset="1" stop-color="#a1a0a0"/></linearGradient></defs><g id="Background"><g id="Background-2" data-name="Background"><g id="L_Bar_Background"><path class="cls-1" d="M266.43,0v118.5H16.92A16.91,16.91,0,0,1,0,101.6V16.93A16.92,16.92,0,0,1,16.92,0Z" transform="translate(0 0)"/><path class="cls-2" d="M266.43,118.51H16.92A16.94,16.94,0,0,1,0,101.6V16.93A16.92,16.92,0,0,1,16.92,0H266.43ZM16.92,0A16.94,16.94,0,0,0,0,16.93V101.6a16.93,16.93,0,0,0,16.91,16.9h249.5V0Z" transform="translate(0 0)"/></g><path id="L_Bar_Gloss" class="cls-3" d="M266.42,6.19V2.31H26.09A14.91,14.91,0,0,0,21.47,3a15.66,15.66,0,0,0-4.31,2.19,15.55,15.55,0,0,0-5.71,7.92,16.54,16.54,0,0,0-.73,5.54A15.73,15.73,0,0,1,18,8.39a15.26,15.26,0,0,1,7.88-2.2" transform="translate(0 0)"/><g id="R_Bar_Background"><path class="cls-4" d="M1237.05,16.92V101.6a16.91,16.91,0,0,1-16.92,16.91H266.43V0h953.7A16.91,16.91,0,0,1,1237.05,16.92Z" transform="translate(0 0)"/><path class="cls-2" d="M1220.13,118.51H266.42V0h953.71a16.9,16.9,0,0,1,16.92,16.92V101.6a16.9,16.9,0,0,1-16.92,16.91Zm-953.7,0h953.7A16.93,16.93,0,0,0,1237,101.6V16.92A16.93,16.93,0,0,0,1220.13,0H266.43V118.5Z" transform="translate(0 0)"/></g><path id="R_Bar_Gloss" class="cls-5" d="M1217.52,6.19a15.26,15.26,0,0,1,7.88,2.2,15.5,15.5,0,0,1,3.35,2.71,16.2,16.2,0,0,1,2.5,3.54,15.93,15.93,0,0,1,1.42,4,16.55,16.55,0,0,0-.74-5.54,15.72,15.72,0,0,0-5.7-7.92A15.66,15.66,0,0,0,1221.92,3a15,15,0,0,0-4.63-.72H266.43V6.19Z" transform="translate(0 0)"/></g></g><g id="Text"><g id="Text-2" data-name="Text"><path id="S" class="cls-5" d="M226.62,13.81l3.29,18.66c-4-2.74-6.45-3.7-10.7-3.71l-4.12.14H183.54c-4.66,0-6.18,1.23-6.18,4.8v3c0,4.94,1,5.63,7.27,5.63h22.5c11.66,0,15.64.83,18.93,4.12s5.35,8.65,5.34,14.82V86.11c0,6.32-2.07,11.12-6.05,14.68-4.25,3.57-7.54,4.39-18.24,4.38l-60.5,0L143.32,86.9c5.21,2.89,7.54,3.16,19.89,3.17H192.3c4.25,0,4.94-.55,4.94-4.8V82.4c0-4.53-.82-5.63-4.12-5.63H167.33c-11.11,0-15.63-.83-18.92-3.71-3.57-3.16-5.35-8.1-5.35-15.23V32.71c0-6,2.06-10.83,6-14.4,4.25-3.7,7.55-4.52,18.25-4.52l59.26,0" transform="translate(0 0)"/><path id="V" class="cls-5" d="M94.43,86.47,116.4,28a24.94,24.94,0,0,0,2.06-9.46,13.66,13.66,0,0,0-.81-4.81h23.18c-3.43,2.88-5.35,6-7.41,11.38l-1.65,4.53L104.85,99.78l-2.06,5.35H64.52L39.58,35l-2.74-7.55c-2.47-7-3.43-8.92-6.58-13.72H72.92a12.48,12.48,0,0,0-1.1,4.81,29,29,0,0,0,2.06,9.74L94.43,86.47" transform="translate(0 0)"/><path id="A" class="cls-6" d="M390.11,84,362.28,13.86l-40.33,0a14,14,0,0,1,3.71,5.5L293.39,88.06c-3.85,8.23-5.91,11.52-10.84,17.14h25.51a11.68,11.68,0,0,1-1.64-5.9A18.11,18.11,0,0,1,307.93,93l5.9-12.48h37.45l4.25,9.74a22.71,22.71,0,0,1,2.19,8.92,8.86,8.86,0,0,1-2.19,6l46,0a38.84,38.84,0,0,1-7.13-10.71L390.11,84M320.56,65.84l12.91-28.39,11.65,28.4Z" transform="translate(0 0)"/><path id="U" class="cls-6" d="M483.05,13.91H479.2c2.61,3.7,3.84,8,3.84,13.58l0,52.13c0,9.06-1.37,10.56-9,10.56H445.71c-7.69,0-8.92-1.51-8.92-10.7l0-52c0-5.62,1.1-9.88,3.85-13.58H398.13c2.74,3.7,3.84,7.95,3.84,13.58L402,79c0,9.47,1.36,14.13,5.61,18.8,4.4,4.94,10.42,7.41,17.83,7.41l49.26,0c7.27,0,13.57-2.46,17.83-7.4s5.63-9.33,5.63-18.79l0-51.58c0-5.63,1.1-9.88,3.85-13.59H483.05" transform="translate(0 0)"/><path id="U-2" data-name="U" class="cls-6" d="M585.43,13.94l-70.11,0-2.75,17.83c3.29-2.19,5.77-2.74,12.21-2.74h16.06l0,62.83c0,5.62-1.24,9.74-3.85,13.44l42.26,0c-2.61-3.7-3.84-7.82-3.7-13.59l0-62.69H591.6c6.3,0,8.77.55,12.06,2.75L600.93,14h-15.5" transform="translate(0 0)"/><path id="O" class="cls-6" d="M693.39,14,640.3,14c-7.13,0-14.13,2.88-18.24,7.4C618.49,25.2,617,31.1,617,40.15v39c0,9,1.5,14.82,5.06,18.8,4,4.52,11.12,7.41,18.39,7.41l53,0c7.13,0,14.13-2.74,18.25-7.4,3.57-3.84,5.22-9.74,5.22-18.8v-39c0-9-1.64-14.67-5.21-18.79-4-4.53-11.1-7.42-18.24-7.42M682,79.69c0,9.06-1.25,10.56-9.07,10.56H660.71c-7.81,0-9.05-1.52-9-10.71V39.76c0-8.65,1.51-10.7,7.69-10.7H673c7.82,0,9,1.52,9,10.71Z" transform="translate(0 0)"/><path id="M" class="cls-6" d="M856.08,14l-46.92,0L791.31,66.15,773.77,14l-46.92,0c2.74,3.71,3.84,8,3.84,13.59l0,64.34c0,5.62-1.1,9.74-3.71,13.44h22.64c-2.6-3.71-3.84-7.82-3.84-13.58l0-56,23.44,69.56h24.55l23.76-69.55,0,56.11c0,5.63-1.24,9.74-3.84,13.44l42.38,0c-2.6-3.7-3.84-7.82-3.83-13.58l0-64.21c0-5.62,1.24-9.88,3.85-13.58" transform="translate(0 0)"/><path id="A-2" data-name="A" class="cls-6" d="M976.29,84.19,948.46,14.07H908.13a14,14,0,0,1,3.71,5.49L879.57,88.27c-3.84,8.23-5.9,11.52-10.84,17.14h25.51a11.65,11.65,0,0,1-1.64-5.9,18.11,18.11,0,0,1,1.51-6.31L900,80.73h37.44l4.26,9.75a22.88,22.88,0,0,1,2.19,8.91,8.87,8.87,0,0,1-2.2,6l45.95,0a39.12,39.12,0,0,1-7.12-10.7l-4.25-10.57M906.74,66.05l12.91-28.39,11.65,28.4Z" transform="translate(0 0)"/><path id="T" class="cls-6" d="M1047.77,14.11l-70.11,0-2.74,17.83c3.29-2.2,5.76-2.74,12.21-2.74h16l0,62.83c0,5.62-1.24,9.74-3.84,13.44l42.25,0c-2.61-3.71-3.84-7.82-3.7-13.59l0-62.69h16c6.31,0,8.78.55,12.07,2.75l-2.73-17.83h-15.5" transform="translate(0 0)"/><path id="I" class="cls-6" d="M1117.23,14.14l-42.39,0c2.6,3.71,3.84,8,3.83,13.59l0,64.33c0,5.63-1.24,9.74-3.84,13.45l42.38,0c-2.6-3.71-3.83-7.83-3.83-13.59l0-64.2c0-5.63,1.24-9.88,3.85-13.58" transform="translate(0 0)"/><path id="C" class="cls-6" d="M1195,90.44h-18.11c-9.74,0-11.94-2.07-11.93-11V40.77c0-10.43,1-11.53,10.3-11.52h19.06c10.16,0,12.35.42,17,3.71l-3.15-18.79-54.6,0c-7.27,0-13.58,2.6-17.84,7.4s-5.49,9.32-5.5,18.79v39c0,9.46,1.36,14.12,5.48,18.79,4.39,4.94,10.56,7.41,17.84,7.42l56.1,0,2.89-17.84c-5.9,2.2-9.19,2.75-17.56,2.74" transform="translate(0 0)"/></g></g></svg>